<svg id="Layer_1" data-name="Layer 1" xmlns="http://www.w3.org/2000/svg" viewBox="0 0 163.12 283.23"><defs><style>.cls-1{fill:#fff;}.cls-2{fill:#1d1d1b;}.cls-3{fill:#000100;}</style></defs><title>milo</title><circle class="cls-1" cx="85.09" cy="78.03" r="78.03"/><path class="cls-2" d="M59.33,223.37c-.58,2.28-1.15,5.54,1.19,6.82,1.9,1,5.35.82,7.44,1a242,242,0,0,0,24.71.42,119,119,0,0,0,21.12-2.45,18.87,18.87,0,0,0,3.6-1c2.92-1.31,2.21-4.65,1.74-7.41,0,.07-2.92.66-2.9.78.43,2.53,1.25,6.31-1.69,7.39l2.7-.73c-11.49,2.88-23.68,2.88-35.43,2.64a132.81,132.81,0,0,1-15.65-.92c-4.34-.61-5.07-2.9-3.94-7.34-.12.46-2.77.28-2.9.78Z"/><path class="cls-2" d="M47.18,171.79c-1.9,6.2,1.26,12.15,2.77,18.07,1.72,6.75,3.11,13.62,4.15,20.5.66,4.35-.14,11,4.55,13.25,3.82,1.87,10,1.32,14.14,1.54A172.94,172.94,0,0,0,105.3,224a104.39,104.39,0,0,0,11.93-1.95c2.58-.65,2.79-1.07,3.38-3.8,2.09-9.67,2.65-19.82,3.47-29.66,0,.32-2.87.42-2.9.78-.66,8-1.42,15.94-2.52,23.86-.27,1.94-.54,3.89-.95,5.8a12.13,12.13,0,0,0-.5,2,3.94,3.94,0,0,0-.25.66l-.12.23q-.54.6.92-.1c.23.26,1.94-.32-.33,0-.51.07-1,.17-1.52.25-1.27.21-2.55.39-3.83.57q-4.79.68-9.59,1.25c-9.5,1.13-18.88.9-28.44.33-3.72-.22-9.05.2-12.51-1.45-4.49-2.15-3.82-8.17-4.41-12.31A203.88,203.88,0,0,0,53,189.63c-1.52-6.08-4.85-12.27-2.91-18.62-.15.49-2.74.25-2.9.78Z"/><path class="cls-2" d="M44.52,274l13.08,9.19s19-25,25.21-42.32l.21,0c13.49,17.2,40.61,30.66,40.61,30.66l-2.24,11.64,8.38-12.31a69.05,69.05,0,0,1-12.62-20.12c-3-7.62.95-22.82.95-22.82s-19.36,3.95-35.28,3.68-21.33-1.35-21.33-1.35L55.18,277"/><path class="cls-2" d="M81.89,225.22s-7.67-20.12-4.29-41.36C79,175.16,93,151.63,93,151.63l2.29-9.25s-4.87,7.34-11,7.74c-10.15.67-13.46-3.83-13.46-3.83l.12,6.36s4.06,20.16,3.84,31.22c-.5,25.33,5.79,41.36,5.79,41.36Z"/><path class="cls-2" d="M57.43,128.58a22.37,22.37,0,0,0-5.76,19.67c1.28,7.51,6,9.73,13.13,7.93,3.18-.81,8.73-1.63,8.11-5.58-.79-5-6-13.59-1.41-17.91l-2.84.77c.51-.12.62.1.71.45l2.9-.78L60.33,127.8c-.72-.32-2.2,1.09-2.9.78l11.93,5.33c.26.12,2.88-.86,2.9-.78-.24-.92-1.58-.27-2.22-.07-1.72.54-2.69,1.16-3.13,3.22-.6,2.8.76,6.45,1.47,9.12.47,1.77,2.46,5.78,1.87,7.62-1,3-7.53,3.57-9.93,2.86-3.53-1-5-4.41-5.65-7.75a22.48,22.48,0,0,1,5.65-20.32C59.75,128.41,58,128,57.43,128.58Z"/><path class="cls-2" d="M102.3,127.37c3.85,1.72,7.65,5,8.82,9.16,1.1,3.91,1.4,18.74-4,20.21l2.18-.57c-4,.31-11.21-1.46-14.2-4.44-2.26-2.25.67-6.66,1.54-9.37.65-2,3.59-10.12-.54-11.15-.38-.1-2.94.46-3.12.84.19-.4,2.43-.54,2.9-.78l9.33-4.67c-.87.44-2,.34-2.9.78L93,132l2.9-.78a.14.14,0,0,1,.12-.1l-2.9.78c5.93,2.07-.95,14.52-1.62,17.91-1,5,11.3,7.61,15.06,7.06,6.59-1,7.3-6.57,7.68-12.56.31-4.94.61-9.39-2.89-13.3a18.45,18.45,0,0,0-6.12-4.46C104.48,126.28,103,127.69,102.3,127.37Z"/><path class="cls-2" d="M140.14,208.31a9.6,9.6,0,0,0,1.12,3.81,10.44,10.44,0,0,1,1.24,5.68,10.14,10.14,0,0,1-2.79,5.71c-1.45,1.61-4,2.11-5.55.33-.44-.51-1.71-2.89-.72-3.47l-1.39.24c.45.1.77.68,1,1.05s2,.1,1.92-.44a9,9,0,0,0-1.12-3.51c-.3-.46-2.2,0-1.86.54a8.6,8.6,0,0,1,1,3.31l1.92-.44c-1-1.54-3.58-2-3.72.37-.22,3.88,4.2,5,7.15,4.19s5.67-4.58,6.07-7.58a10.72,10.72,0,0,0-.76-5.59,13.39,13.39,0,0,1-1.55-4.54c0-.53-2-.26-2,.34Z"/><path class="cls-2" d="M131.72,221.73a19,19,0,0,1-1.65-3.35,3.54,3.54,0,0,1-.27-2.37,5.25,5.25,0,0,1,2.77-2.32c.28,0,1.21.08,1.27-.37a9.55,9.55,0,0,0-.38-3.27c-.13-.62-2.1-.49-2,0a9.6,9.6,0,0,1,.38,3.27l1.27-.37c-2-.17-4.71,1-5.35,3.09-.57,1.81,1.13,4.41,2,5.89.3.5,2.22.3,1.93-.18Z"/><path class="cls-2" d="M140.61,204.51c.07,1.08.49,3,0,4a2.63,2.63,0,0,1-1.24.93c-.29.15-1.95.71-.92.39s-1.71.3-1.3.23a11.59,11.59,0,0,1-4.33.3c-2-.49-2-2.36-2.4-4l-2.9.78a55.73,55.73,0,0,0,8.43-1c2.45-.49,5.44-1,7.56-2.4-.79.52-2.1.25-2.9.78-1.72,1.13-3.69,1.23-6.17,1.5-1.34.15-2.68.26-4,.32-.28,0-2.9.77-2.9.78.56,2.38.83,4.12,3.65,4.06a28.42,28.42,0,0,0,6.44-1.08,21.22,21.22,0,0,0,4.83-1.53c1.78-1,1.19-3.05,1.07-4.83C143.52,203.91,140.59,204.29,140.61,204.51Z"/><path class="cls-2" d="M117.89,168.16c1.75,10,3.09,20,4.73,30,.53,3.23.93,8.39,4.89,8.81,3.58.39,7.86-.77,11.32-1.63,1.43-.35,3.61-.6,4.88-1.42,3.56-2.3,2.28-10.14,2.07-13.69-.71-11.56-2.43-23.92-7.66-34.42-2.56-5.15-5.75-10.64-10.15-14.46-3-2.6-8.37-5-12.46-4.67-1,.08-1.92.7-2.9.78,4-.33,9.55,2.15,12.46,4.67,4.29,3.72,7.38,9,9.92,14,6,11.81,8,26.33,8.07,39.44,0,2.16.31,6.13-1.09,8s-3.94,1.78-6,2.09c-5.26.78-8.08,1.25-9.63-4.41-1.41-5.14-1.52-10.58-2.35-15.83-1-6-2.11-12.06-3.17-18.08,0,.07-2.92.67-2.9.78Z"/><path class="cls-2" d="M117.27,155.6c-4.61,3.39,12.51,21.2,14.1,8.38.41-3.29,0-13-5.3-12.08a29.52,29.52,0,0,0-8.8,3.7c.42-.24,1-.15,1.45-.39a50.84,50.84,0,0,1,4.74-2.37c2.8-1.2,4.3.05,5.48,2.77s2.69,11.36-1,12.87l1.45-.39c-3.84.72-7.55-3.86-9.36-6.62-.81-1.22-3.15-4.89-1.27-6.27C118.35,155.49,117.65,155.32,117.27,155.6Z"/><path class="cls-2" d="M64.82,199.76a27.4,27.4,0,0,1,2,9.57c.07,2.05.13,5.41-1.58,7,.33-.29,1.11-.09,1.45-.39,1.7-1.54,1.65-4.94,1.58-7a27.37,27.37,0,0,0-2-9.57c0-.07-1.43.44-1.45.39Z"/><path class="cls-2" d="M101.13,199.46c-3.31,4.42,1.26,13.62,5,16.38.26.19,1.21-.57,1.45-.39-2.73-2-4.29-5.24-5.17-8.44-.65-2.34-1.42-5.81.17-7.94-.23.31-1.21.07-1.45.39Z"/><path class="cls-2" d="M25,215.39c-3.2,4.4,3.74,7.6,7.31,7.47,2.2-.08,3.25-1.42,5-2.52,2.09-1.32,2-4.8,2.41-7,.1-.5-1.88-.75-2-.14-.3,1.5-.45,3.06-.86,4.54-.5,1.83-1.71,2.13-3,3.22-1.73,1.43-3.52,1.19-5.42,0s-3-3.15-1.51-5.19c.32-.45-1.56-.83-1.91-.35Z"/><path class="cls-2" d="M34.48,211.38c-1.51-2-4.11-1.88-6.34-1.31-1.42.37-2.69.74-3.44,2.1a3.69,3.69,0,0,0-.4,3c.2.52,2.16.5,1.94-.07-1.26-3.24,4.38-6.28,6.3-3.68.36.48,2.23.32,1.94-.07Z"/><path class="cls-2" d="M26.89,216.1c1.6-2.21,3.82-3.93,6.43-1.33,1.44,1.43.82,3.46.12,5.15-.22.53,1.53.93,1.86.65A7.25,7.25,0,0,0,37.57,218c.18-.51-1.72-1.12-1.92-.56a6.83,6.83,0,0,1-2.15,2.43l1.86.65a7.2,7.2,0,0,0,.74-4c-.33-1.53-2-2.59-3.31-3.2s-3.29-1.28-4.75-.7a7.68,7.68,0,0,0-2.94,2.78c-.37.52,1.48,1.18,1.79.74Z"/><path class="cls-2" d="M42.15,210.31c-3.3-1.09-7.72-2.62-9.76-5.6a15.69,15.69,0,0,0-2.9.78c-.29.68-1.91,3.39-1.64,4,.16.33,1.5.74,1.81.89q1.58.77,3.16,1.51c1.48.69,3.32,1.89,5,1.74,2.35-.22,3.42-1.15,4.34-3.27-.24.55-2.65.19-2.9.78a5.28,5.28,0,0,1-1.64,2.54l2.9-.78c-1.19.11-2.62-.8-3.67-1.27-1.61-.73-3.2-1.49-4.78-2.27-.2-.1-1.11-.39-1.22-.6s.09-.27.13-.6a14.53,14.53,0,0,1,1.43-3.4l-2.9.78c2,3,6.45,4.51,9.76,5.6C40.06,211.36,41.37,210.05,42.15,210.31Z"/><path class="cls-2" d="M48.38,146.67c-5.92,4.58-9,13.48-10.79,20.34-2.07,7.77-3.29,15.8-5.06,23.65q-.95,4.21-2,8.41c-.34,1.42-1.29,3.54-1.23,5,.05,1.19-.33.57.14,1.42.74,1.34,4.52,3,5.77,3.67,2.76,1.53,4.81,2.29,7.78,1.31,3.51-1.16,4.56-4.65,6-7.83a79.27,79.27,0,0,0,4.16-12.73c-.12.46-2.77.28-2.9.78a104.63,104.63,0,0,1-3.16,10.22C46,204,44.23,209.84,40.85,211l2.9-.78c-3,0-11.26-3.64-11.6-6.58-.25-2.07,1.35-5.45,1.82-7.47q1.56-6.61,3-13.25c2.5-11.7,3.88-29,14.33-37.08-.72.56-2.16.21-2.9.78Z"/><path class="cls-2" d="M47.75,67.36c1.9-2.09,5.41-3.17,8.12-3.46,2.24-.24,7.26-.75,9,1.12-.61-.64.64-3.08,0-3.75-1.77-1.87-6.85-1.35-9-1.12-2.73.29-6.21,1.36-8.12,3.46-.63.7.61,3.08,0,3.75Z"/><path class="cls-2" d="M85.11,61.43a.49.49,0,0,1,0-.14V65c.29-2.63,7.73-1,9.24-.44,3.77,1.3,6.7,4.45,8.91,7.65-.58-.83.59-2.89,0-3.75-3.66-5.31-9.15-9.32-15.93-8.42-2.65.35-2.78,2.73-2.19,5.11-.29-1.17.29-2.57,0-3.75Z"/><path class="cls-2" d="M45.48,49.63c-8.76,6.57-9.75,20-9.76,30,0,10.95,1.23,23,5.56,33.22,4.76,11.18,20.13,18.76,31.32,21,9.43,1.91,19.25-1,27.79-5,11.77-5.48,28.77-16.13,30.71-30.34l-2.9.78c2.63.07,6.74-1,8.6-2.87A6.52,6.52,0,0,0,138.72,91c-.42-2-2-2.38-3.19-3.7-1.45-1.67-.45-4.81-.12-7.26,0,.36-2.84.37-2.9.78-.21,1.54-1.31,5.23-.7,6.62.41.93,2.43,1.52,3.15,2.56,2.21,3.21-.45,8.64-3.86,8.54a12.93,12.93,0,0,0-2.9.78c-1.52,11.12-12.75,19.74-21.56,25.32-5.9,3.74-12.68,7.43-19.62,8.7s-13.89-.31-20.27-3c-9.26-3.88-19.64-10.14-23.26-20s-4.84-20.63-4.89-30.93.86-23.92,9.76-30.6c-.74.55-2.15.21-2.9.78Z"/><path class="cls-2" d="M74.74,71.72a39.48,39.48,0,0,1-3.27,12.4,19.13,19.13,0,0,1-2.18,3.69c-.4.51-2.86,2.29-2.92,2.7-.25,1.82,4.22,5.83,5.49,6.75.52.38,2.4-1.14,2.9-.78-1.22-.88-5.8-5-5.44-6.66.11-.53,2-1.81,2.54-2.39a18.26,18.26,0,0,0,2.5-4.08,39.47,39.47,0,0,0,3.27-12.4c0,.34-2.86.4-2.9.78Z"/><path class="cls-2" d="M121.73,80.4a50.76,50.76,0,0,1,5.06,1.84,29.82,29.82,0,0,0,4.06,1.85c.64.16,1.55-.74,2.17-.58A29.8,29.8,0,0,1,129,81.65a50.77,50.77,0,0,0-5.06-1.84c-.62-.19-1.58.77-2.17.58Z"/><path class="cls-2" d="M120.81,82.55a50.76,50.76,0,0,1,5.06,1.84,29.82,29.82,0,0,0,4.06,1.85c.64.16,1.55-.74,2.17-.58A29.8,29.8,0,0,1,128,83.8,50.76,50.76,0,0,0,123,82c-.62-.19-1.58.77-2.17.58Z"/><path class="cls-2" d="M119.14,84.1a38.36,38.36,0,0,1,5.25,2.05,16.63,16.63,0,0,0,2.88,1.31c.43.11,1-.49,1.45-.39a16.7,16.7,0,0,1-2.87-1.31,38.36,38.36,0,0,0-5.25-2.05c-.41-.12-1,.51-1.45.39Z"/><circle class="cls-2" cx="100.95" cy="92.09" r="0.37"/><circle class="cls-2" cx="104.16" cy="93.06" r="0.37"/><circle class="cls-2" cx="101.99" cy="90.67" r="0.37" transform="translate(-27.53 133.66) rotate(-60)"/><circle class="cls-2" cx="102.5" cy="95.26" r="0.37"/><circle class="cls-2" cx="106.14" cy="94.35" r="0.37"/><circle class="cls-2" cx="104.44" cy="89.58" r="0.37"/><circle class="cls-2" cx="105.37" cy="98.17" r="0.37"/><circle class="cls-2" cx="51.65" cy="95.27" r="0.37" transform="translate(-10.75 6.66) rotate(-6.69)"/><circle class="cls-2" cx="48.35" cy="94.68" r="0.37" transform="translate(-10.7 6.28) rotate(-6.69)"/><circle class="cls-2" cx="50.79" cy="96.8" r="0.37" transform="translate(-58.21 105.14) rotate(-66.69)"/><circle class="cls-2" cx="49.74" cy="92.3" r="0.37" transform="translate(-10.41 6.42) rotate(-6.69)"/><circle class="cls-2" cx="46.24" cy="93.63" r="0.37" transform="translate(-10.59 6.02) rotate(-6.69)"/><circle class="cls-2" cx="48.48" cy="98.17" r="0.37" transform="translate(-11.1 6.32) rotate(-6.69)"/><circle class="cls-2" cx="46.55" cy="89.74" r="0.37" transform="translate(-10.14 6.03) rotate(-6.69)"/><circle class="cls-2" cx="96.16" cy="94.96" r="0.37" transform="translate(-24.24 33.57) rotate(-17.62)"/><circle class="cls-2" cx="90.16" cy="97.96" r="0.37" transform="translate(-25.43 31.9) rotate(-17.62)"/><circle class="cls-2" cx="101.16" cy="99.96" r="0.37" transform="translate(-25.52 35.32) rotate(-17.62)"/><circle class="cls-2" cx="57.48" cy="98.17" r="0.37" transform="translate(-11.04 7.36) rotate(-6.69)"/><path class="cls-2" d="M117.83,38.35c.31-.14.63-.27,1-.39a14.83,14.83,0,0,0,1.47-.51l-1.07.29q.67-.15,1.36-.23c2-.24,4-.1,5.41,1.43.33.36,2.6-1.1,2.9-.78-2.12-2.3-5.62-1.52-8.29-.82a35.12,35.12,0,0,0-5.64,1.79c.9-.4,2-.37,2.9-.78Z"/><path class="cls-2" d="M121.18,36.92a20.23,20.23,0,0,0,1.95-1.27c.69-.5,1.88-1.29,1.95-2.23a28.59,28.59,0,0,1-2.91.75l-2,.56a4.49,4.49,0,0,0-.84.25c-.06.95-1.26,1.73-1.95,2.23a20.23,20.23,0,0,1-1.95,1.27,4.63,4.63,0,0,1,.85-.21l2.05-.54,2-.56a3.92,3.92,0,0,0,.84-.25Z"/><path class="cls-2" d="M113.85,88.07c2,4.91-1.84,11-5.75,13.71.38-.27,1.06-.12,1.45-.39,3.91-2.72,7.72-8.79,5.75-13.71,0-.07-1.43.43-1.45.39Z"/><path class="cls-2" d="M137.15,53.29C129,38,117.7,37.79,117.7,37.79s-4-21-26.87-22.31c-9.86-.57-13.25,7.56-25,6.19-13.6-1.59-20.33,6.79-25,12.79-7.33,9.42-16.5,4.83-16.5,4.83S25.74,54.13,37.07,55s28.58-14,43-12.28,23,7.69,26.17,8.69c2,.64,2.69.46,2.9.25-.5,1.35-2.38,8.09,7.1,13.09,10.58,5.58,8.3,11.92,5.92,12.92-.88.37,10.87,4.69,12.06,5.13C134.88,80.91,142.93,64.15,137.15,53.29ZM94.42,23c8.8,2,15.1,7.56,20.63,14.5-.12-.15-1.32.55-1.45.39-5.52-6.94-11.83-12.47-20.62-14.5C93.4,23.46,94,22.87,94.42,23Zm15.05,24.47c-5.35-5.83-9.84-11.1-17.75-12.95.42.1,1-.49,1.45-.39,7.9,1.85,12.41,7.12,17.75,12.95C110.77,46.88,109.63,47.61,109.47,47.44Zm8.6-2.05h0l-.08,0v0c-2,.23-4.49-2.07-5.8-3.29a41.43,41.43,0,0,0-10.1-6.87c-.88-.45-1.78-.87-2.68-1.28,3.55,2.92,7,6,10.52,8.9-.22-.18-1.21.58-1.45.39-4.6-3.74-9-7.71-13.71-11.36-2-.91-4.06-1.86-6-3-1-.57-1.7-.81-1.32-1.07H87.2l.58-.15.58-.16h0l.25-.07s.07,0,.15,0c1.86-.15,3.94,1.39,5.32,2.37l.68.5c4.75,2.39,10.65,5.46,11.46,5.9a38.41,38.41,0,0,1,7.62,5.67,14.28,14.28,0,0,0,4.2,2.92c-.91-2.94-17.21-14.46-18.86-15.35a57.49,57.49,0,0,0-12.87-5.1,33.25,33.25,0,0,0-4.54-.9c-.45-.05-.94,0-1.38-.13H80.3c-.57.3-.76-.11,0,0a1.72,1.72,0,0,0,.37-.26c-.33.3-1.12.09-1.45.39.67-.61,2.36-.49,3.14-.47,6.2.14,13,3.24,18.3,6.09A69.08,69.08,0,0,1,113,37.69c1.83,1.57,4.79,3.51,5.9,5.71.46.91.69,1.35.37,1.62h.17l-.27.07A3.23,3.23,0,0,1,118.07,45.38Z"/><path class="cls-2" d="M134.32,82.88l-.1,0C134.14,83.06,134.16,83.1,134.32,82.88Z"/><path class="cls-2" d="M63.61,81.34c-3.7,2-8.52,3.17-12.48,1.32.3.14-.34,2.34,0,2.5,4,1.86,8.78.72,12.48-1.32.37-.2-.34-2.31,0-2.5Z"/><path class="cls-2" d="M85.61,82.88c3.87,1.85,8.8,2.84,12.81,1,.34-.16-.3-2.36,0-2.5-4,1.88-8.94.9-12.81-1,.31.15-.34,2.34,0,2.5Z"/><ellipse class="cls-2" cx="69.22" cy="113.72" rx="1.89" ry="2.75" transform="translate(-9.51 6.37) rotate(-4.93)"/><path class="cls-2" d="M65.66,117.9c1.56,2.46,6.2,2.14,8.14.37.56-.51-1.34-.73-1.73-.37-1.26,1.16-3.48,1.34-4.48-.25-.31-.49-2.23-.23-1.92.25Z"/><path class="cls-2" d="M72.71,109.92c-2-1.21-5.34-2.5-7-.12-.31.44,1.57.77,1.92.29s.81-.9,1.52-.72a7.48,7.48,0,0,1,1.87.89,1.89,1.89,0,0,0,1.36.2c.19,0,.79-.29.38-.53Z"/><g id="layer1"><path id="path2832" class="cls-3" d="M16.33,72.44,13.68,91.75l0,.35a4.77,4.77,0,0,0-2.31-1c-2.25-.31-4.28.92-4.53,2.75s1.37,3.56,3.62,3.87,4.14-.84,4.39-2.67a7.24,7.24,0,0,0,.15-.79l1.71-12.45,4.9,4.8L19.43,102.1a4.83,4.83,0,0,0-2.12-.82c-2.25-.31-4.28.92-4.53,2.75s1.37,3.56,3.62,3.87a3.93,3.93,0,0,0,4.44-2.32v-.07a2.94,2.94,0,0,0,.1-.74l3.18-23.14-7.81-9.2h0Z"/></g><path class="cls-3" d="M4.17,56.87l-1.36.32L6.3,71.87a5,5,0,0,0-2.9-.15c-2.25.53-3.74,2.35-3.33,4.05s2.56,2.65,4.8,2.11,3.74-2.35,3.33-4.05L5.27,61.5c3.24-1.43,6.34,2.56,8.25,4.55C10.1,55.46,4.17,56.87,4.17,56.87Z"/></svg>